<svg width="36" height="35" viewBox="0 0 36 35" fill="none" xmlns="http://www.w3.org/2000/svg">
<g clip-path="url(#clip0_61_116)">
<rect width="35" height="35" transform="translate(0.0996094)" fill="#BE4729"/>
<path d="M0.0996094 0V35H35.0996V0H0.0996094Z" fill="#BE4729"/>
<path d="M7.57807 24.4067V30.625C6.5864 30.6717 5.59474 30.66 4.60307 30.6017C4.57974 30.2983 4.54474 30.0417 4.54474 29.7967C4.54474 25.4217 4.53307 21.0583 4.54474 16.6833C4.5564 13.16 6.63307 10.1967 9.78307 9.15834C14.4614 7.60667 19.1864 10.99 19.6181 15.7383C19.9447 19.3083 18.0664 22.4817 14.9397 23.8233C13.9364 24.255 12.8864 24.395 11.8131 24.395C10.4364 24.4067 9.08307 24.4067 7.57807 24.4067ZM7.58974 21.2683C9.11807 21.2683 10.5414 21.245 11.9647 21.2683C14.4964 21.315 16.3047 19.425 16.6197 17.185C16.9697 14.6183 15.1731 12.2617 12.6181 11.9H12.6064C10.2264 11.585 7.82307 13.4283 7.62474 15.89C7.47307 17.64 7.58974 19.39 7.58974 21.2683Z" fill="#F0F0D9"/>
<path d="M27.9715 16.3333L33.6298 24.29H29.9665L25.7665 18.5383C24.2382 20.44 22.9665 22.4117 21.5198 24.29H17.8682L23.5148 16.3333L18.4865 8.79666H22.1498L25.7432 14.1633L29.3365 8.79666H32.9882L27.9715 16.3333Z" fill="#F0F0D9"/>
<path d="M7.58952 21.2683C7.58952 19.39 7.47285 17.6283 7.61285 15.9017C7.81119 13.44 10.2145 11.5967 12.5945 11.9117C15.1612 12.2617 16.9579 14.6183 16.6079 17.185C16.3045 19.425 14.4845 21.315 11.9529 21.2683C10.5412 21.245 9.11785 21.2683 7.58952 21.2683Z" fill="#BE4729"/>
</g>
<defs>
<clipPath id="clip0_61_116">
<rect width="35" height="35" fill="white" transform="translate(0.0996094)"/>
</clipPath>
</defs>
</svg>
