<svg width="40" height="39" viewBox="0 0 40 39" fill="none" xmlns="http://www.w3.org/2000/svg">
<path d="M37.7983 19.5C37.7983 24.1413 35.9546 28.5925 32.6727 31.8744C29.3908 35.1563 24.9396 37 20.2983 37C15.6571 37 11.2059 35.1563 7.92397 31.8744C4.64208 28.5925 2.79834 24.1413 2.79834 19.5M37.7983 19.5C37.7983 14.8587 35.9546 10.4075 32.6727 7.12563C29.3908 3.84374 24.9396 2 20.2983 2C15.6571 2 11.2059 3.84374 7.92397 7.12563C4.64208 10.4075 2.79834 14.8587 2.79834 19.5M37.7983 19.5H2.79834" stroke="#BE4729" stroke-width="4" stroke-linecap="round" stroke-linejoin="round"/>
<path d="M27.0289 19.5C26.6983 25.8996 24.3411 32.0282 20.2982 37C16.2552 32.0282 13.898 25.8996 13.5674 19.5C13.898 13.1004 16.2552 6.97175 20.2982 2C24.3411 6.97175 26.6983 13.1004 27.0289 19.5Z" stroke="#BE4729" stroke-width="4" stroke-linecap="round" stroke-linejoin="round"/>
</svg>
