<svg width="36" height="28" viewBox="0 0 36 28" fill="none" xmlns="http://www.w3.org/2000/svg">
<path d="M5.93294 0.564835C4.54056 0.564835 3.2052 1.11796 2.22063 2.10252C1.23607 3.08709 0.682943 4.42245 0.682943 5.81483C0.682943 7.20722 1.23607 8.54258 2.22063 9.52714C3.2052 10.5117 4.54056 11.0648 5.93294 11.0648C7.32533 11.0648 8.66069 10.5117 9.64525 9.52714C10.6298 8.54258 11.1829 7.20722 11.1829 5.81483C11.1829 4.42245 10.6298 3.08709 9.64525 2.10252C8.66069 1.11796 7.32533 0.564835 5.93294 0.564835ZM17.0163 0.564835V27.3982H27.5163C25.5051 27.3982 23.5762 26.5992 22.1541 25.1771C20.7319 23.7549 19.9329 21.8261 19.9329 19.8148C19.9329 17.8036 20.7319 15.8748 22.1541 14.4526C23.5762 13.0305 25.5051 12.2315 27.5163 12.2315C25.9692 12.2315 24.4854 11.6169 23.3915 10.523C22.2975 9.429 21.6829 7.94526 21.6829 6.39817C21.6829 4.85107 22.2975 3.36734 23.3915 2.27338C24.4854 1.17942 25.9692 0.564835 27.5163 0.564835H17.0163ZM27.5163 0.564835V12.2315C29.0634 12.2315 30.5471 11.6169 31.6411 10.523C32.735 9.429 33.3496 7.94526 33.3496 6.39817C33.3496 4.85107 32.735 3.36734 31.6411 2.27338C30.5471 1.17942 29.0634 0.564835 27.5163 0.564835ZM27.5163 12.2315V27.3982C28.5121 27.3982 29.4982 27.202 30.4183 26.8209C31.3383 26.4398 32.1743 25.8812 32.8785 25.1771C33.5827 24.4729 34.1413 23.6369 34.5224 22.7169C34.9035 21.7968 35.0996 20.8107 35.0996 19.8148C35.0996 17.8036 34.3007 15.8748 32.8785 14.4526C31.4564 13.0305 29.5275 12.2315 27.5163 12.2315ZM16.2871 1.72275L0.0996094 27.3967H12.9329L16.2871 22.0884V1.72275Z" fill="#BE4729"/>
</svg>
