<svg width="36" height="36" viewBox="0 0 36 36" fill="none" xmlns="http://www.w3.org/2000/svg">
<path d="M31.5177 0.5H4.30847C2.16601 0.5 0.413086 2.25 0.413086 4.38889V31.6111C0.413086 33.75 2.16601 35.5 4.30847 35.5H31.5177C33.6602 35.5 35.4131 33.75 35.4131 31.6111V4.38889C35.4131 3.35749 35.0027 2.36834 34.2722 1.63903C33.5416 0.909721 32.5508 0.5 31.5177 0.5ZM28.4209 27.6833C28.3624 27.7028 28.2845 27.7222 28.2261 27.7222H23.8243C23.6337 27.7254 23.4465 27.6716 23.2868 27.5676C23.1271 27.4637 23.0023 27.3143 22.9284 27.1389L18.1371 15.9778C18.0981 15.8611 17.9813 15.8028 17.8839 15.8417C17.8528 15.8534 17.8245 15.8716 17.801 15.895C17.7775 15.9185 17.7593 15.9467 17.7475 15.9778L14.7676 23.075C14.7091 23.2111 14.7676 23.3472 14.9039 23.4056C14.9429 23.425 14.9623 23.425 15.0013 23.425H18.2734C18.4682 23.425 18.6629 23.5417 18.7409 23.7361L20.1821 26.925C20.3185 27.2167 20.1627 27.5667 19.8705 27.7028C19.7537 27.7028 19.6757 27.7222 19.5978 27.7222H7.67797C7.38582 27.7222 7.13262 27.4694 7.13262 27.1778C7.13262 27.1 7.1521 27.0417 7.17157 26.9639L14.7676 8.91944C14.9234 8.53056 15.3129 8.27778 15.7219 8.27778H20.1042C20.5327 8.27778 20.9028 8.53056 21.0586 8.91944L28.6936 26.9639C28.8299 27.2361 28.713 27.5667 28.4209 27.6833Z" fill="#BE4729"/>
</svg>
