<svg width="36" height="36" viewBox="0 0 36 36" fill="none" xmlns="http://www.w3.org/2000/svg">
<path d="M2.60059 0.5C2.02042 0.5 1.46403 0.730468 1.05379 1.1407C0.643554 1.55094 0.413086 2.10734 0.413086 2.6875L0.413086 33.3125C0.413086 33.8927 0.643554 34.4491 1.05379 34.8593C1.46403 35.2695 2.02042 35.5 2.60059 35.5H33.2256C33.8057 35.5 34.3621 35.2695 34.7724 34.8593C35.1826 34.4491 35.4131 33.8927 35.4131 33.3125V2.6875C35.4131 2.10734 35.1826 1.55094 34.7724 1.1407C34.3621 0.730468 33.8057 0.5 33.2256 0.5L2.60059 0.5ZM12.4443 10.3438H20.1327C21.5403 10.343 22.8966 10.872 23.932 11.8255C24.9675 12.779 25.6062 14.0873 25.7212 15.4902C25.8362 16.893 25.4191 18.2878 24.5528 19.3973C23.6866 20.5067 22.4345 21.2496 21.0456 21.4781V25.6563H12.4443V10.3438ZM14.6318 12.5313V23.4688H18.8581V19.365H20.1312C20.5799 19.365 21.0242 19.2766 21.4388 19.1049C21.8533 18.9332 22.23 18.6815 22.5473 18.3642C22.8646 18.0469 23.1163 17.6703 23.288 17.2557C23.4597 16.8412 23.5481 16.3968 23.5481 15.9481C23.5481 15.4994 23.4597 15.0551 23.288 14.6405C23.1163 14.226 22.8646 13.8493 22.5473 13.532C22.23 13.2147 21.8533 12.9631 21.4388 12.7913C21.0242 12.6196 20.5799 12.5313 20.1312 12.5313H14.6318Z" fill="#BE4729"/>
</svg>
